<?xml version="1.0" encoding="UTF-8"?><!DOCTYPE svg PUBLIC "-//W3C//DTD SVG 1.1//EN" "http://www.w3.org/Graphics/SVG/1.1/DTD/svg11.dtd"><svg xmlns="http://www.w3.org/2000/svg" xmlns:xlink="http://www.w3.org/1999/xlink"><defs/><symbol id="chevron-right" viewBox="0 0 64 64"><rect id="chevron-right" x="0" y="0" width="64" height="64" style="fill:none;"/><g><path d="M50.286,33.768c0.975,-0.976 0.975,-2.56 0,-3.536l-29.501,-29.5c-0.975,-0.976 -2.56,-0.976 -3.535,0l-3.536,3.535c-0.975,0.976 -0.975,2.56 0,3.536l29.501,29.5c0.975,0.976 2.56,0.976 3.535,0l3.536,-3.535Z" style="fill:#fff;"/><path d="M46.75,26.697c-0.975,-0.976 -2.56,-0.976 -3.535,0l-29.501,29.5c-0.975,0.976 -0.975,2.56 0,3.536l3.536,3.535c0.975,0.976 2.56,0.976 3.535,0l29.501,-29.5c0.975,-0.976 0.975,-2.56 0,-3.536l-3.536,-3.535Z" style="fill:#fff;"/></g></symbol><symbol id="coin" viewBox="0 0 64 64"><rect id="coin" x="0" y="0" width="64" height="64" style="fill:none;"/><clipPath id="_clip1"><rect x="0" y="0" width="64" height="64"/></clipPath><g clip-path="url(#_clip1)"><g><path d="M0.057,28.007c0,-13.222 14.313,-23.957 31.943,-23.957c17.63,0 31.943,10.735 31.943,23.957c0.129,0.963 0,4.601 0,5.59c0,14.545 -14.313,26.353 -31.943,26.353c-17.63,0 -31.943,-11.808 -31.943,-26.353c0,-0.989 -0.129,-4.627 0,-5.59Z" style="fill:#fff;"/><path d="M63.943,28.007c0.129,0.963 0,4.601 0,5.59c0,14.545 -14.313,26.353 -31.943,26.353c-17.63,0 -31.943,-11.808 -31.943,-26.353c0,-0.989 -0.129,-4.627 0,-5.59c1.767,11.971 15.512,23.957 31.943,23.957c16.431,0 30.176,-11.986 31.943,-23.957Z" style="fill-opacity:0.12;"/><clipPath id="_clip2"><path d="M63.943,28.007c0.129,0.963 0,4.601 0,5.59c0,14.545 -14.313,26.353 -31.943,26.353c-17.63,0 -31.943,-11.808 -31.943,-26.353c0,-0.989 -0.129,-4.627 0,-5.59c1.767,11.971 15.512,23.957 31.943,23.957c16.431,0 30.176,-11.986 31.943,-23.957Z"/></clipPath><g clip-path="url(#_clip2)"><g><rect x="2.453" y="16.827" width="1.597" height="60.691" style="fill-opacity:0.12;"/><rect x="8.842" y="16.827" width="1.597" height="60.691" style="fill-opacity:0.12;"/><rect x="15.23" y="16.827" width="1.597" height="60.691" style="fill-opacity:0.12;"/><rect x="21.619" y="16.827" width="1.597" height="60.691" style="fill-opacity:0.12;"/><rect x="28.007" y="16.827" width="1.597" height="60.691" style="fill-opacity:0.12;"/><rect x="34.396" y="16.827" width="1.597" height="60.691" style="fill-opacity:0.12;"/><rect x="40.784" y="16.827" width="1.597" height="60.691" style="fill-opacity:0.12;"/><rect x="47.173" y="16.827" width="1.597" height="60.691" style="fill-opacity:0.12;"/><rect x="53.561" y="16.827" width="1.597" height="60.691" style="fill-opacity:0.12;"/><rect x="59.95" y="16.827" width="1.597" height="60.691" style="fill-opacity:0.12;"/></g></g></g></g></symbol><symbol id="cross" viewBox="0 0 64 64"><path fill="none" d="M0 0h64v64H0z"/><g fill="#fff"><path d="M56.395 52.923a2.5 2.5 0 000-3.535L14.676 7.668a2.503 2.503 0 00-3.536 0l-3.535 3.536a2.5 2.5 0 000 3.535l41.719 41.72c.976.975 2.56.975 3.536 0l3.535-3.536z"/><path d="M52.86 7.541a2.503 2.503 0 00-3.536 0L7.605 49.261a2.5 2.5 0 000 3.535l3.535 3.536c.976.975 2.56.975 3.536 0l41.719-41.72a2.5 2.5 0 000-3.535L52.86 7.541z"/></g></symbol><symbol id="double-chevron-right" viewBox="0 0 64 64"><rect id="double-chevron-right" x="0" y="0" width="64" height="64" style="fill:none;"/><g><path d="M40.786,33.768c0.975,-0.976 0.975,-2.56 0,-3.536l-29.501,-29.5c-0.975,-0.976 -2.56,-0.976 -3.535,0l-3.536,3.535c-0.975,0.976 -0.975,2.56 0,3.536l29.501,29.5c0.975,0.976 2.56,0.976 3.535,0l3.536,-3.535Z" style="fill:#fff;"/><path d="M37.25,26.697c-0.975,-0.976 -2.56,-0.976 -3.535,0l-29.501,29.5c-0.975,0.976 -0.975,2.56 0,3.536l3.536,3.535c0.975,0.976 2.56,0.976 3.535,0l29.501,-29.5c0.975,-0.976 0.975,-2.56 0,-3.536l-3.536,-3.535Z" style="fill:#fff;"/><path d="M59.786,33.768c0.975,-0.976 0.975,-2.56 0,-3.536l-29.501,-29.5c-0.975,-0.976 -2.56,-0.976 -3.535,0l-3.536,3.535c-0.975,0.976 -0.975,2.56 0,3.536l29.501,29.5c0.975,0.976 2.56,0.976 3.535,0l3.536,-3.535Z" style="fill:#fff;"/><path d="M56.25,26.697c-0.975,-0.976 -2.56,-0.976 -3.535,0l-29.501,29.5c-0.975,0.976 -0.975,2.56 0,3.536l3.536,3.535c0.975,0.976 2.56,0.976 3.535,0l29.501,-29.5c0.975,-0.976 0.975,-2.56 0,-3.536l-3.536,-3.535Z" style="fill:#fff;"/></g></symbol><symbol id="menu" viewBox="0 0 64 64"><g><path class="top-bar" d="M64 11.5A2.5 2.5 0 0061.5 9h-59A2.5 2.5 0 000 11.5v5A2.5 2.5 0 002.5 19h59a2.5 2.5 0 002.5-2.5v-5z"/><path class="middle-bar" d="M64 29.5a2.5 2.5 0 00-2.5-2.5h-59A2.5 2.5 0 000 29.5v5A2.5 2.5 0 002.5 37h59a2.5 2.5 0 002.5-2.5v-5z"/><path class="bottom-bar" d="M64 47.5a2.5 2.5 0 00-2.5-2.5h-59A2.5 2.5 0 000 47.5v5A2.5 2.5 0 002.5 55h59a2.5 2.5 0 002.5-2.5v-5z"/></g></symbol></svg>